<svg width="120" height="118" viewBox="0 0 120 118" fill="none" xmlns="http://www.w3.org/2000/svg">
<g filter="url(#filter0_d_3009_490)">
<path d="M6.64667 88.4819L48.4467 112.773C49.3326 113.29 50.7598 113.29 51.6457 112.782L115.159 76.1072C116.045 75.5987 116.045 74.7702 115.159 74.2534L73.3594 49.962C72.4817 49.4534 71.0544 49.4534 70.1685 49.962L6.65488 86.6281C5.76897 87.1449 5.76076 87.9733 6.64667 88.4819Z" fill="#AABAFD"/>
<path d="M56.0415 90.9506C55.542 91.239 55.545 91.7088 56.0412 91.9972L66.3451 97.9851C66.8413 98.2735 67.6525 98.2768 68.1519 97.9884L88.4568 86.2654C88.9563 85.977 88.9533 85.5072 88.4571 85.2188L78.1532 79.2308C77.6569 78.9424 76.8458 78.9392 76.3464 79.2276L56.0415 90.9506Z" fill="#2E4277"/>
<path d="M5.99023 87.5632L5.99844 90.0083C5.99844 90.3364 6.21989 90.6727 6.65465 90.927L48.4546 115.218C49.3405 115.727 50.7678 115.727 51.6537 115.218L115.167 78.5523C115.61 78.298 115.832 77.9618 115.832 77.6172L115.824 75.1803C115.824 75.5166 115.602 75.8529 115.159 76.1072L51.6455 112.782C50.7596 113.29 49.3323 113.29 48.4464 112.773L6.64644 88.4819C6.20352 88.2276 5.99023 87.8995 5.99023 87.5632Z" fill="#798FFE"/>
<path d="M70.0449 1.59438C70.9299 1.08339 71.6497 1.49358 71.6526 2.5106L71.7659 47.1953C71.7687 48.2063 71.0536 49.451 70.1685 49.962L7.57015 86.0998C6.68507 86.6108 5.96524 86.1946 5.96236 85.1836L5.84913 40.4989C5.84625 39.4819 6.5614 38.2432 7.44647 37.7322L70.0449 1.59438Z" fill="#1B2A4F"/>
<path d="M4.16797 39.5249L4.28281 84.2079C4.28281 84.7083 4.46329 85.0692 4.75038 85.2333L6.42927 86.2096C6.14214 86.0456 5.96171 85.6847 5.96171 85.1842L5.84686 40.5013C5.84686 39.4841 6.56051 38.2455 7.44642 37.7288L70.0451 1.59505C70.4881 1.34077 70.89 1.3162 71.1853 1.48021L69.5064 0.503869C69.2193 0.339805 68.8092 0.364381 68.3663 0.618661L5.76752 36.7606C4.88161 37.2692 4.16797 38.5078 4.16797 39.5249Z" fill="#384E85"/>
<path d="M8.1084 39.9539L8.21733 83.1221L69.5064 47.7403L69.3975 4.57205L8.1084 39.9539Z" fill="#384E85"/>
<path d="M8.1084 39.9539L8.12669 47.1945L69.4158 11.8126L69.3975 4.57205L8.1084 39.9539Z" fill="#AABAFD"/>
<path d="M59.2919 13.1381C59.8828 12.7969 60.3631 13.059 60.365 13.7379C60.3669 14.4168 59.8897 15.2435 59.2988 15.5847C58.7181 15.9199 58.2378 15.6461 58.2358 14.9672C58.2339 14.2882 58.7112 13.4733 59.2919 13.1381Z" fill="white"/>
<path d="M62.7044 11.1677C63.2851 10.8325 63.7654 11.0945 63.7674 11.7734C63.7693 12.4523 63.2921 13.279 62.7113 13.6143C62.1205 13.9554 61.6401 13.6816 61.6382 13.0027C61.6363 12.3238 62.1135 11.5089 62.7044 11.1677Z" fill="white"/>
<path d="M66.1072 9.20323C66.6981 8.86209 67.1785 9.12412 67.1804 9.80306C67.1823 10.482 66.7051 11.3086 66.1142 11.6498C65.5233 11.9909 65.0429 11.7172 65.041 11.0382C65.0391 10.3593 65.5164 9.54436 66.1072 9.20323Z" fill="white"/>
<path d="M19.465 85.4833L15.4529 87.8149L13.7246 86.817L17.7367 84.4854L19.465 85.4833Z" fill="#384E85"/>
<path d="M62.6346 60.3959L58.617 62.7307L56.8887 61.7328L60.9062 59.3981L62.6346 60.3959Z" fill="#384E85"/>
<path d="M73.427 54.1241L69.4095 56.4588L67.6812 55.461L71.6987 53.1262L73.427 54.1241Z" fill="#384E85"/>
<path d="M66.226 68.7242L62.2139 71.0558L58.6465 68.9961L62.6585 66.6646L66.226 68.7242Z" fill="#384E85"/>
<path d="M86.0148 67.6463L81.9973 69.981L78.4243 67.9181L82.4419 65.5834L86.0148 67.6463Z" fill="#384E85"/>
<path d="M91.4138 64.5088L87.3963 66.8435L79.3252 62.1837L83.3428 59.8489L91.4138 64.5088Z" fill="#384E85"/>
<path d="M77.925 56.721L70.5173 61.0259L66.9443 58.9631L74.352 54.6581L77.925 56.721Z" fill="#384E85"/>
<path d="M69.1413 61.8254L65.1238 64.1602L61.5508 62.0973L65.5683 59.7626L69.1413 61.8254Z" fill="#384E85"/>
<path d="M82.4175 59.3148L73.001 64.7871L69.4336 62.7274L78.8501 57.2552L82.4175 59.3148Z" fill="#384E85"/>
<path d="M71.625 65.5866L67.6075 67.9213L64.04 65.8617L68.0576 63.5269L71.625 65.5866Z" fill="#384E85"/>
<path d="M76.1232 68.1836L72.1057 70.5183L68.5327 68.4555L72.5503 66.1207L76.1232 68.1836Z" fill="#384E85"/>
<path d="M63.7424 64.9631L59.7248 67.2978L56.1519 65.235L60.1694 62.9002L63.7424 64.9631Z" fill="#384E85"/>
<path d="M57.2355 63.5335L53.2235 65.865L51.4951 64.8672L55.5072 62.5356L57.2355 63.5335Z" fill="#384E85"/>
<path d="M51.8421 66.6678L47.8245 69.0025L46.0962 68.0047L50.1137 65.6699L51.8421 66.6678Z" fill="#384E85"/>
<path d="M54.5383 80.7273L50.5207 83.0621L46.9478 80.9992L50.9653 78.6644L54.5383 80.7273Z" fill="#384E85"/>
<path d="M46.443 69.8052L42.431 72.1368L40.7026 71.1389L44.7147 68.8074L46.443 69.8052Z" fill="#384E85"/>
<path d="M52.9498 71.2348L48.9377 73.5664L45.3647 71.5035L49.3768 69.172L52.9498 71.2348Z" fill="#384E85"/>
<path d="M41.0496 72.9395L37.032 75.2743L35.3037 74.2765L39.3213 71.9417L41.0496 72.9395Z" fill="#384E85"/>
<path d="M47.5563 74.3692L43.5388 76.7039L39.9658 74.6411L43.9834 72.3063L47.5563 74.3692Z" fill="#384E85"/>
<path d="M55.4335 74.996L51.4214 77.3275L47.854 75.2679L51.8661 72.9363L55.4335 74.996Z" fill="#384E85"/>
<path d="M35.656 76.0738L31.6385 78.4086L29.9102 77.4107L33.9277 75.076L35.656 76.0738Z" fill="#384E85"/>
<path d="M42.1633 77.5035L38.1457 79.8382L34.5728 77.7754L38.5903 75.4406L42.1633 77.5035Z" fill="#384E85"/>
<path d="M59.9317 77.593L55.9197 79.9245L52.3467 77.8617L56.3587 75.5301L59.9317 77.593Z" fill="#384E85"/>
<path d="M50.0401 78.1303L46.0225 80.465L42.4551 78.4054L46.4727 76.0706L50.0401 78.1303Z" fill="#384E85"/>
<path d="M30.2571 79.2114L26.2395 81.5462L24.5112 80.5483L28.5288 78.2136L30.2571 79.2114Z" fill="#384E85"/>
<path d="M36.7644 80.6411L32.7468 82.9758L29.1738 80.913L33.1914 78.5782L36.7644 80.6411Z" fill="#384E85"/>
<path d="M44.647 81.2646L40.6294 83.5994L37.062 81.5397L41.0796 79.205L44.647 81.2646Z" fill="#384E85"/>
<path d="M31.3708 83.7754L27.3532 86.1101L23.7803 84.0472L27.7978 81.7125L31.3708 83.7754Z" fill="#384E85"/>
<path d="M49.1447 83.8616L45.1272 86.1964L41.5542 84.1335L45.5718 81.7988L49.1447 83.8616Z" fill="#384E85"/>
<path d="M39.2481 84.4022L35.2305 86.7369L31.6631 84.6772L35.6806 82.3425L39.2481 84.4022Z" fill="#384E85"/>
<path d="M43.7458 86.9992L39.7282 89.3339L36.1553 87.2711L40.1728 84.9363L43.7458 86.9992Z" fill="#384E85"/>
<path d="M64.6608 80.0556L44.2263 91.9308L40.6533 89.868L61.0879 77.9927L64.6608 80.0556Z" fill="#384E85"/>
<path d="M38.3523 90.1334L34.3347 92.4681L30.7617 90.4053L34.7793 88.0705L38.3523 90.1334Z" fill="#384E85"/>
<path d="M33.8544 87.5365L24.4434 93.0056L20.876 90.9459L30.287 85.4768L33.8544 87.5365Z" fill="#384E85"/>
<path d="M32.9537 93.2709L28.9416 95.6025L25.3687 93.5396L29.3807 91.2081L32.9537 93.2709Z" fill="#384E85"/>
<path d="M42.8507 92.7304L33.4397 98.1995L29.8667 96.1366L39.2777 90.6675L42.8507 92.7304Z" fill="#384E85"/>
<path d="M24.8641 82.3457L20.8465 84.6805L19.1182 83.6826L23.1357 81.3479L24.8641 82.3457Z" fill="#384E85"/>
<path d="M68.0281 57.2616L64.0105 59.5963L62.2822 58.5985L66.2998 56.2637L68.0281 57.2616Z" fill="#384E85"/>
<path d="M58.3489 68.0974L54.3313 70.4321L50.7583 68.3693L54.7759 66.0345L58.3489 68.0974Z" fill="#384E85"/>
<path d="M69.8289 77.0524L65.8113 79.3872L62.2383 77.3243L66.2559 74.9896L69.8289 77.0524Z" fill="#384E85"/>
<path d="M65.3308 74.4554L61.3132 76.7902L57.7402 74.7273L61.7578 72.3926L65.3308 74.4554Z" fill="#384E85"/>
<path d="M60.833 71.8585L56.8155 74.1932L53.248 72.1336L57.2656 69.7988L60.833 71.8585Z" fill="#384E85"/>
<path d="M80.6213 70.7806L76.6037 73.1153L73.0308 71.0525L77.0483 68.7177L80.6213 70.7806Z" fill="#384E85"/>
<path d="M75.2222 73.9181L71.2102 76.2497L67.6372 74.1868L71.6493 71.8553L75.2222 73.9181Z" fill="#384E85"/>
<path d="M25.9717 86.9129L19.9509 90.4119L16.3779 88.349L22.3988 84.85L25.9717 86.9129Z" fill="#384E85"/>
<path d="M13.8055 51.3641C14.5833 50.915 15.0426 51.0132 15.3713 51.311L14.9298 52.0269C14.6474 51.7423 14.2849 51.7654 13.842 52.0211C12.9409 52.5414 12.3694 53.6736 12.3725 54.7621C12.3756 55.8463 12.9517 56.3248 13.8528 55.8045C14.2956 55.5488 14.6571 55.1407 14.9369 54.5403L15.3811 54.7493C15.0551 55.4294 14.5979 56.0569 13.82 56.506C12.5492 57.2397 11.6911 56.6093 11.687 55.1579C11.6829 53.7065 12.5347 52.0978 13.8055 51.3641Z" fill="#D9DDF6"/>
<path d="M16.6702 53.7212C16.932 53.57 17.1561 53.6977 17.157 53.9986C17.1578 54.3039 16.9352 54.6851 16.6733 54.8363C16.4076 54.9897 16.1874 54.8642 16.1865 54.5589C16.1857 54.258 16.4045 53.8746 16.6702 53.7212Z" fill="#D9DDF6"/>
<path d="M17.0028 50.5218C17.1926 50.1952 17.1931 49.8413 17.004 49.7314C16.8148 49.6214 16.5076 49.7971 16.3178 50.1237C16.128 50.4503 16.1275 50.8042 16.3166 50.9141C16.5058 51.024 16.813 50.8484 17.0028 50.5218Z" fill="#D9DDF6"/>
<path d="M18.1439 46.9091L20.2553 52.8704L19.7354 53.1705L17.624 47.2093L18.1439 46.9091Z" fill="#D9DDF6"/>
<path d="M22.2587 43.8465L25.9444 45.9514L22.2826 52.2983L21.6915 51.9614L24.7737 46.6272L21.6714 44.8637L22.2587 43.8465Z" fill="#D9DDF6"/>
<path d="M30.0599 45.9597L30.0643 47.5439L26.2096 49.7694L26.2051 48.1853L30.0599 45.9597Z" fill="#D9DDF6"/>
</g>
<defs>
<filter id="filter0_d_3009_490" x="0.167969" y="0.400009" width="119.664" height="123.2" filterUnits="userSpaceOnUse" color-interpolation-filters="sRGB">
<feFlood flood-opacity="0" result="BackgroundImageFix"/>
<feColorMatrix in="SourceAlpha" type="matrix" values="0 0 0 0 0 0 0 0 0 0 0 0 0 0 0 0 0 0 127 0" result="hardAlpha"/>
<feOffset dy="4"/>
<feGaussianBlur stdDeviation="2"/>
<feComposite in2="hardAlpha" operator="out"/>
<feColorMatrix type="matrix" values="0 0 0 0 0 0 0 0 0 0 0 0 0 0 0 0 0 0 0.25 0"/>
<feBlend mode="normal" in2="BackgroundImageFix" result="effect1_dropShadow_3009_490"/>
<feBlend mode="normal" in="SourceGraphic" in2="effect1_dropShadow_3009_490" result="shape"/>
</filter>
</defs>
</svg>
